PathFileType	4	(X/Y/Z)	/Users/itak/Documents/Research/Walk-IL/dataset/trc/00068_00006.trc
DataRate	CameraRate	NumFrames	NumMarkers	Units	OrigDataRate	OrigDataStartFrame	OrigNumFrames
100.000000	100.000000	4	53	mm	100.000000	0	706
Frame#	Time	RPSI			LPSI			L3			STRN			T10			C7			CLAV			RBAK			LBAK			LSHO			LUPA			LAEL			LAOL			LWTS			LWPS			LFRA			LIFD			LHPS			LHTS			RSHO			RUPA			RAEL			RAOL			RWTS			RWPS			RFRA			RIFD			RHTS			RHPS			RBHD			LFHD			RFHD			LBHD			LHIP			RHIP			RASI			LASI			LKNE			LTHI			LANK			LTIP			LTOE			LMT1			LMT5			LHEE			RKNE			RTHI			RANK			RTIP			RTOE			RMT1			RMT5			RHEE			
		X1	Y1	Z1	X2	Y2	Z2	X3	Y3	Z3	X4	Y4	Z4	X5	Y5	Z5	X6	Y6	Z6	X7	Y7	Z7	X8	Y8	Z8	X9	Y9	Z9	X10	Y10	Z10	X11	Y11	Z11	X12	Y12	Z12	X13	Y13	Z13	X14	Y14	Z14	X15	Y15	Z15	X16	Y16	Z16	X17	Y17	Z17	X18	Y18	Z18	X19	Y19	Z19	X20	Y20	Z20	X21	Y21	Z21	X22	Y22	Z22	X23	Y23	Z23	X24	Y24	Z24	X25	Y25	Z25	X26	Y26	Z26	X27	Y27	Z27	X28	Y28	Z28	X29	Y29	Z29	X30	Y30	Z30	X31	Y31	Z31	X32	Y32	Z32	X33	Y33	Z33	X34	Y34	Z34	X35	Y35	Z35	X36	Y36	Z36	X37	Y37	Z37	X38	Y38	Z38	X39	Y39	Z39	X40	Y40	Z40	X41	Y41	Z41	X42	Y42	Z42	X43	Y43	Z43	X44	Y44	Z44	X45	Y45	Z45	X46	Y46	Z46	X47	Y47	Z47	X48	Y48	Z48	X49	Y49	Z49	X50	Y50	Z50	X51	Y51	Z51	X52	Y52	Z52	X53	Y53	Z53	

1	0	289.8384704589844	1038.233520507812	1067.899047851562	302.1392517089844	1034.369873046875	1243.032470703125	291.2563781738281	1081.91162109375	1161.157836914062	55.6249885559082	1288.600341796875	1162.759033203125	319.2014770507812	1213.357666015625	1164.584228515625	272.6129760742188	1482.564208984375	1166.949584960938	88.93947601318359	1402.245361328125	1164.070678710938	328.7047729492188	1341.597778320312	1092.160888671875	292.617919921875	1443.741088867188	1267.071899414062	190.4900817871094	1452.665771484375	1340.077880859375	202.9498291015625	1324.800170898438	1416.353515625	172.1864471435547	1110.588989257812	1433.306030273438	233.8249206542969	1093.443969726562	1346.475952148438	61.59420013427734	879.7716064453125	1365.442993164062	118.7198181152344	862.5202026367188	1422.905883789062	144.3759918212891	1002.378784179688	1438.122924804688	34.90379333496094	701.9396362304688	1333.3125	77.2027587890625	783.5252075195312	1415.241577148438	29.61098670959473	801.6961059570312	1367.023681640625	208.1377410888672	1448.772094726562	990.6906127929688	216.8322448730469	1378.303588867188	928.409423828125	230.6220855712891	1110.77978515625	905.5520629882812	211.4106750488281	1092.64404296875	1001.463134765625	73.26057434082031	868.6041870117188	942.167724609375	144.1973571777344	847.657470703125	895.3466796875	213.0971832275391	1032.137084960938	900.0823364257812	54.45191955566406	681.78466796875	965.210205078125	42.34318923950195	768.3749389648438	942.5828857421875	101.6489486694336	759.6603393554688	893.1182250976562	237.3989715576172	1669.029174804688	1230.1650390625	75.55905914306641	1699.53955078125	1090.9033203125	63.19402694702148	1707.39892578125	1216.252197265625	241.5155334472656	1654.076904296875	1093.479370117188	214.2989501953125	974.4342041015625	1343.115600585938	222.8365020751953	962.878173828125	995.0795288085938	98.35730743408203	977.2786254882812	1017.207092285156	88.62286376953125	974.3930053710938	1288.068969726562	159.9097900390625	499.2354431152344	1292.375854492188	180.6239624023438	643.3977661132812	1329.737182617188	260.1851806640625	51.59524536132812	1317.6015625	217.7448883056641	267.3663940429688	1319.138061523438	54.83056259155273	45.04109191894531	1292.869506835938	108.9636535644531	41.74073028564453	1243.829711914062	154.9491424560547	43.30486679077148	1346.507446289062	319.1198120117188	46.42167663574219	1246.685546875	179.6129150390625	514.97900390625	1023.197998046875	152.2568206787109	785.8671875	988.8036499023438	260.6224365234375	42.69750213623047	1038.7607421875	204.6211242675781	397.0614929199219	1019.332641601562	43.52502822875977	41.4555778503418	1074.397216796875	104.3380279541016	44.99184036254883	1113.94677734375	135.6081390380859	47.22130584716797	1021.607421875	306.98828125	44.25924301147461	1097.358154296875	
2	0.01	289.8318481445312	1038.238891601562	1067.9453125	302.0824890136719	1034.387084960938	1243.069702148438	291.1956481933594	1081.917846679688	1161.203002929688	55.56744766235352	1288.557250976562	1162.75439453125	319.1433715820312	1213.349243164062	1164.628540039062	272.5232543945312	1482.571533203125	1166.996337890625	88.89989471435547	1402.203369140625	1164.082885742188	328.6555786132812	1341.607788085938	1092.203857421875	292.5333557128906	1443.710083007812	1267.108520507812	190.3585510253906	1452.615600585938	1340.113403320312	203.0402069091797	1324.725341796875	1416.3994140625	172.8360595703125	1110.475708007812	1433.394287109375	234.4254302978516	1093.481079101562	1346.439208984375	64.03620910644531	878.4983520507812	1366.680541992188	121.3931427001953	862.0980224609375	1424.132202148438	145.7783966064453	1002.1953125	1438.634765625	39.13241577148438	700.174072265625	1335.462890625	80.57002258300781	782.55419921875	1416.847778320312	32.77724456787109	800.1085815429688	1368.588623046875	208.0800628662109	1448.739868164062	990.7020874023438	216.8101196289062	1378.2578125	928.4282836914062	230.9343872070312	1110.759033203125	905.7854614257812	211.5575408935547	1092.592407226562	1001.691223144531	75.20781707763672	867.5807495117188	941.8133544921875	146.2174835205078	847.4254760742188	894.8095703125	213.7826080322266	1032.270874023438	900.2435913085938	58.01847839355469	680.4544067382812	964.1593627929688	45.04056167602539	767.0927124023438	941.8452758789062	104.3760681152344	759.070556640625	892.2816162109375	237.4916229248047	1668.915161132812	1230.2509765625	75.75571441650391	1699.689575195312	1090.9990234375	63.30686569213867	1707.488037109375	1216.301513671875	241.6393280029297	1653.973999023438	1093.557250976562	214.2666473388672	974.4666137695312	1343.23291015625	222.8572692871094	962.8880615234375	995.1000366210938	98.37047576904297	977.2610473632812	1017.207153320312	88.58041381835938	974.359375	1288.052368164062	160.0031890869141	499.1891784667969	1292.408325195312	180.6448059082031	643.3888549804688	1329.79345703125	260.1937255859375	51.58806991577148	1317.608276367188	217.8018646240234	267.3787841796875	1319.189819335938	54.83463668823242	45.04412078857422	1292.8740234375	108.9676666259766	41.74868011474609	1243.829833984375	154.9461059570312	43.29064178466797	1346.494018554688	319.1268920898438	46.4107666015625	1246.698364257812	179.675048828125	514.9672241210938	1023.187194824219	152.2949981689453	785.8549194335938	988.7899169921875	260.6229553222656	42.69612121582031	1038.759887695312	204.7064971923828	397.0568542480469	1019.323913574219	43.53130340576172	41.45724868774414	1074.401611328125	104.34033203125	44.992431640625	1113.943115234375	135.5812683105469	47.21815490722656	1021.603454589844	306.9881286621094	44.24848175048828	1097.362182617188	
3	0.02	289.82275390625	1038.247680664062	1068.003662109375	302.0160522460938	1034.407958984375	1243.1171875	291.1243286132812	1081.928833007812	1161.260498046875	55.49142456054688	1288.506103515625	1162.750854492188	319.0753784179688	1213.344604492188	1164.68603515625	272.4112243652344	1482.58642578125	1167.052978515625	88.84627532958984	1402.155639648438	1164.1005859375	328.585693359375	1341.628295898438	1092.25830078125	292.42138671875	1443.682006835938	1267.155029296875	190.1979675292969	1452.55859375	1340.16015625	203.1501617431641	1324.640991210938	1416.45947265625	173.6569976806641	1110.35205078125	1433.507934570312	235.1875762939453	1093.542114257812	1346.3916015625	67.10097503662109	876.9411010742188	1368.249389648438	124.7327346801758	861.6210327148438	1425.683837890625	147.5456390380859	1001.987487792969	1439.274291992188	44.43717956542969	698.029296875	1338.191650390625	84.806884765625	781.4252319335938	1418.900512695312	36.74580383300781	798.1643676757812	1370.565795898438	207.9992065429688	1448.707275390625	990.7173461914062	216.7763061523438	1378.210083007812	928.4527587890625	231.3385620117188	1110.741577148438	906.0699462890625	211.8159027099609	1092.533935546875	1001.969665527344	77.63690948486328	866.3377685546875	941.3549194335938	148.7381744384766	847.1658325195312	894.14208984375	214.6402130126953	1032.445678710938	900.44384765625	62.48056411743164	678.8572387695312	962.8450317382812	48.45670318603516	765.5037841796875	940.9256591796875	107.7909088134766	758.3768310546875	891.2406616210938	237.5895080566406	1668.764892578125	1230.361083984375	75.97896575927734	1699.873657226562	1091.115966796875	63.45228576660156	1707.599243164062	1216.379028320312	241.7750244140625	1653.852172851562	1093.6572265625	214.1452331542969	974.4518432617188	1343.316162109375	222.8841247558594	962.900146484375	995.1276245117188	98.39017486572266	977.2410888671875	1017.20654296875	88.52610015869141	974.3212280273438	1288.033325195312	160.1022033691406	499.13916015625	1292.442993164062	180.6601257324219	643.3759765625	1329.856201171875	260.2032165527344	51.58166122436523	1317.615356445312	217.8644256591797	267.3908386230469	1319.242919921875	54.83917617797852	45.04753494262695	1292.87890625	108.9715347290039	41.75717926025391	1243.830810546875	154.9420928955078	43.27338409423828	1346.478881835938	319.1340637207031	46.39762115478516	1246.712768554688	179.7504425048828	514.9556884765625	1023.175048828125	152.3414459228516	785.8419189453125	988.7750244140625	260.6232299804688	42.69330596923828	1038.758666992188	204.8022003173828	397.0517272949219	1019.313842773438	43.53784942626953	41.45956802368164	1074.405639648438	104.343376159668	44.99330139160156	1113.938598632812	135.5520935058594	47.2161865234375	1021.598022460938	306.9881591796875	44.23658752441406	1097.36572265625	
4	0.03	289.8118591308594	1038.2607421875	1068.071899414062	301.9447326660156	1034.431274414062	1243.173095703125	291.0488891601562	1081.946044921875	1161.328125	55.39847946166992	1288.451049804688	1162.749755859375	319.00244140625	1213.347412109375	1164.755126953125	272.2806091308594	1482.610961914062	1167.116577148438	88.77913665771484	1402.1064453125	1164.1240234375	328.4944458007812	1341.662475585938	1092.322509765625	292.2855224609375	1443.66357421875	1267.209228515625	190.0174102783203	1452.500122070312	1340.217407226562	203.2744750976562	1324.554565429688	1416.534057617188	174.6184844970703	1110.2314453125	1433.643798828125	236.0800628662109	1093.6318359375	1346.33544921875	70.65435028076172	875.1890258789062	1370.084594726562	128.5946197509766	861.134033203125	1427.499389648438	149.6038055419922	1001.776245117188	1440.015258789062	50.59162902832031	695.6351928710938	1341.393798828125	89.74008941650391	780.232666015625	1421.324951171875	41.35492324829102	795.9736938476562	1372.886962890625	207.8943176269531	1448.679443359375	990.7366943359375	216.7290954589844	1378.168090820312	928.4820556640625	231.8237457275391	1110.733154296875	906.3892822265625	212.2028045654297	1092.475952148438	1002.282043457031	80.43771362304688	864.9481201171875	940.8059692382812	151.6454162597656	846.9043579101562	893.3756103515625	215.6352081298828	1032.658081054688	900.6731567382812	67.63663482666016	677.095703125	961.3281860351562	52.44458770751953	763.703369140625	939.8653564453125	111.7421340942383	757.6312255859375	890.0443115234375	237.6811370849609	1668.581909179688	1230.491577148438	76.20906066894531	1700.08251953125	1091.247802734375	63.62746810913086	1707.727416992188	1216.488525390625	241.9071044921875	1653.720092773438	1093.776123046875	213.8804626464844	974.3486938476562	1343.31298828125	222.9169311523438	962.9139404296875	995.161865234375	98.41604614257812	977.2208862304688	1017.205139160156	88.46275329589844	974.2818603515625	1288.012939453125	160.1950988769531	499.091064453125	1292.475341796875	180.6607666015625	643.3583374023438	1329.918579101562	260.2123718261719	51.5767822265625	1317.621826171875	217.9257354736328	267.40087890625	1319.29150390625	54.84372329711914	45.05110549926758	1292.883544921875	108.9749908447266	41.76506423950195	1243.832153320312	154.9378204345703	43.25580978393555	1346.46484375	319.1406555175781	46.38383865356445	1246.727294921875	179.8338775634766	514.9461059570312	1023.162841796875	152.3925170898438	785.830078125	988.7611694335938	260.6230773925781	42.68879699707031	1038.756958007812	204.8991088867188	397.046630859375	1019.303161621094	43.54384994506836	41.46274185180664	1074.40869140625	104.3468933105469	44.99430465698242	1113.933471679688	135.5275268554688	47.21526336669922	1021.591735839844	306.9883117675781	44.22422027587891	1097.368286132812	
